<svg width="16" height="17" viewBox="0 0 16 17" fill="none" xmlns="http://www.w3.org/2000/svg">
<g clip-path="url(#clip0_1_694)">
<path d="M8 4.16582L6.40987 0L6.43729 4.49681L3.47087 1.2954L5.11583 5.43269L1.21727 3.68647L4.23304 6.84223L0 6.80799L3.92049 8.49715L0 10.192L4.23304 10.1578L1.21727 13.3135L5.11583 11.5616L3.47087 15.7046L6.43729 12.5032L6.40987 17L8 12.8342L9.59013 17L9.56271 12.5032L12.5291 15.7046L10.8842 11.5616L14.7827 13.3135L11.767 10.1578L16 10.192L12.0795 8.49715L16 6.80799L11.767 6.84223L14.7827 3.68647L10.8842 5.43269L12.5291 1.2954L9.56271 4.49681L9.59013 0L8 4.16582Z" fill="#E8E8E8"/>
</g>
<defs>
<clipPath id="clip0_1_694">
<rect width="16" height="17" fill="white"/>
</clipPath>
</defs>
</svg>
